<?xml version="1.0" encoding="iso-8859-1"?>
<!-- Generator: Adobe Illustrator 18.0.0, SVG Export Plug-In . SVG Version: 6.00 Build 0)  -->
<!DOCTYPE svg PUBLIC "-//W3C//DTD SVG 1.1//EN" "http://www.w3.org/Graphics/SVG/1.1/DTD/svg11.dtd">
<svg version="1.1" id="Capa_1" xmlns="http://www.w3.org/2000/svg" xmlns:xlink="http://www.w3.org/1999/xlink" x="0px" y="0px"
	 viewBox="0 0 217.111 217.111" style="enable-background:new 0 0 217.111 217.111;" xml:space="preserve">
<g>
	<path d="M108.552,0c-46.13,0-83.66,37.536-83.66,83.674c0,32.967,13.802,66.314,39.913,96.438
		c19.502,22.499,38.83,35.246,39.644,35.777c1.246,0.816,2.675,1.223,4.104,1.223s2.857-0.407,4.104-1.222
		c0.813-0.532,20.144-13.279,39.647-35.778c26.114-30.123,39.917-63.471,39.917-96.438C192.22,37.536,154.687,0,108.552,0z
		 M108.545,200.407c-15.386-11.432-68.653-55.448-68.653-116.733C39.892,45.807,70.692,15,108.552,15
		c37.863,0,68.668,30.807,68.668,68.674C177.22,144.816,123.926,188.948,108.545,200.407z"/>
	<path d="M108.497,85.794c12.564,0,22.786-10.222,22.786-22.786c0-12.567-10.222-22.791-22.786-22.791
		c-12.565,0-22.788,10.224-22.788,22.791C85.709,75.572,95.932,85.794,108.497,85.794z M108.497,55.217
		c4.293,0,7.786,3.495,7.786,7.791c0,4.293-3.493,7.786-7.786,7.786c-4.294,0-7.788-3.493-7.788-7.786
		C100.709,58.712,104.203,55.217,108.497,55.217z"/>
	<path d="M116.312,86.629h-15.508c-12.295,0-22.297,10.003-22.297,22.298v11.669c0,4.143,3.357,7.5,7.5,7.5
		c4.143,0,7.5-3.357,7.5-7.5v-11.669c0-4.024,3.273-7.298,7.297-7.298h15.508c4.024,0,7.299,3.273,7.299,7.298v11.669
		c0,4.143,3.357,7.5,7.5,7.5c4.143,0,7.5-3.357,7.5-7.5v-11.669C138.61,96.632,128.607,86.629,116.312,86.629z"/>
</g>
<g>
</g>
<g>
</g>
<g>
</g>
<g>
</g>
<g>
</g>
<g>
</g>
<g>
</g>
<g>
</g>
<g>
</g>
<g>
</g>
<g>
</g>
<g>
</g>
<g>
</g>
<g>
</g>
<g>
</g>
</svg>
